# xmcd
#
# Track frame offsets:
#	150
#	11485
#	25850
#	44834
#	54959
#	68594
#	78287
#	95566
#	109129
#	123958
#	139247
#	151569
#
# Disc length: 2296 seconds
#
# Revision: 1
# Processed by: cddbd v1.5.2PL0 Copyright (c) Steve Scherf et al.
# Submitted via: audiograbber 1.83.01
#
DISCID=9008f60c
DTITLE=TJ Stuart - Blowing In The Wind
DYEAR=1900
DGENRE=
TTITLE0=Blowing In The Wind
TTITLE1=Does Fort Worth Ever Cross Your Mind
TTITLE2=If Those Lips Could Only Speak
TTITLE3=Tiger By The Tail
TTITLE4=Four In The Morning
TTITLE5=Honk If You Honkytonk
TTITLE6=Help Me Make It Through The Night
TTITLE7=Started Hating Cheating Songs Today
TTITLE8=Picture In A Frame
TTITLE9=That'd Be Alright
TTITLE10=Honkytonkville
TTITLE11=How Great Thou Art
EXTD=
EXTT0=
EXTT1=
EXTT2=
EXTT3=
EXTT4=
EXTT5=
EXTT6=
EXTT7=
EXTT8=
EXTT9=
EXTT10=
EXTT11=
PLAYORDER=
